<svg width="19" height="18" viewBox="0 0 19 18" fill="none" xmlns="http://www.w3.org/2000/svg">
    <path fill-rule="evenodd" clip-rule="evenodd" d="M11.8118 0.877996C11.8118 0.393053 12.2147 3.73226e-06 12.7117 3.73226e-06C13.2088 3.73226e-06 13.6119 0.393053 13.6119 0.877996V1.32237C14.0581 1.32914 14.4547 1.34472 14.8041 1.38029C15.4515 1.44644 16.0386 1.58888 16.5606 1.94136C16.9168 2.18184 17.2255 2.48305 17.4721 2.83053C17.8334 3.33971 17.9794 3.9124 18.047 4.54403C18.1064 5.09878 18.1114 5.77582 18.1118 6.58533V6.71997V6.81273V11.9158C18.112 13.1047 18.112 14.0851 18.005 14.8611C17.8927 15.6757 17.6479 16.3953 17.0574 16.9714C16.467 17.5474 15.7294 17.7863 14.8944 17.8958C14.099 18.0001 13.094 18 11.8754 18H6.34838C5.12958 18 4.12463 18.0001 3.32924 17.8958C2.49423 17.7863 1.75666 17.5474 1.1662 16.9714C0.575741 16.3953 0.330887 15.6757 0.218641 14.8611C0.111668 14.0851 0.111816 13.1047 0.111816 11.9158V6.81273V6.73247V6.58532C0.112268 5.77582 0.117239 5.09877 0.176605 4.54403C0.244257 3.9124 0.390259 3.3397 0.751558 2.83053C0.998056 2.48303 1.30692 2.18185 1.66298 1.94136C2.18505 1.58886 2.77207 1.44644 3.41951 1.38029C3.76891 1.34471 4.16549 1.32913 4.61176 1.32237V0.877993C4.61176 0.39305 5.0148 0 5.51188 0C6.00896 0 6.41184 0.39305 6.41184 0.877993V1.31706H11.8119L11.8118 0.877996ZM1.91191 6.5854C1.91251 5.7631 1.91823 5.18145 1.9669 4.72665C2.01933 4.2382 2.1132 3.99711 2.23178 3.82984C2.35503 3.65624 2.50932 3.50557 2.68739 3.38535C2.85871 3.26966 3.10598 3.17809 3.60664 3.12693C3.88644 3.09842 4.21311 3.08504 4.61179 3.07872V3.51222C4.61179 3.99717 5.01482 4.39037 5.5119 4.39037C6.00898 4.39037 6.41186 3.99717 6.41186 3.51222V3.0733H11.8119V3.51222C11.8119 3.99717 12.2148 4.39037 12.7119 4.39037C13.209 4.39037 13.612 3.99717 13.612 3.51222V3.07872C14.0107 3.08504 14.3374 3.09842 14.6172 3.12693C15.1178 3.17809 15.3651 3.26966 15.5364 3.38535C15.7145 3.50559 15.8688 3.65626 15.992 3.82984C16.1106 3.99712 16.2046 4.2382 16.2569 4.72665C16.3056 5.18145 16.3113 5.7631 16.3119 6.5854H1.91191ZM16.312 8.34154V11.8537C16.312 13.1203 16.31 13.9818 16.2211 14.627C16.1357 15.247 15.985 15.5341 15.7848 15.7294C15.5844 15.9249 15.2901 16.0719 14.6546 16.1553C13.9933 16.242 13.1101 16.2439 11.8119 16.2439H6.41181C5.11347 16.2439 4.23037 16.242 3.56909 16.1553C2.93354 16.0719 2.63931 15.9249 2.43905 15.7294C2.23865 15.5341 2.08798 15.247 2.00257 14.627C1.91367 13.9818 1.91171 13.1203 1.91171 11.8537V8.34154H16.312Z" fill="#666666"/>
</svg>
