<svg width="25" height="24" viewBox="0 0 25 24" fill="none" xmlns="http://www.w3.org/2000/svg">
    <path d="M20.0248 13.2821C19.7634 13.2821 19.5495 13.4972 19.5495 13.76V16.3242C19.5495 17.2719 18.7733 18.0444 17.8148 18.0444H7.18515C6.22673 18.0444 5.45049 17.2719 5.45049 16.3242V13.76C5.45049 13.4972 5.23663 13.2821 4.97525 13.2821C4.71386 13.2821 4.5 13.4972 4.5 13.76V16.3242C4.5 17.7975 5.70396 19 7.18515 19H17.8148C19.296 19 20.5 17.7975 20.5 16.3242V13.76C20.5 13.4972 20.2861 13.2821 20.0248 13.2821ZM12.1673 15.1138C12.2624 15.2093 12.3812 15.2571 12.5 15.2571C12.6188 15.2571 12.7455 15.2093 12.8327 15.1138L14.8604 13.0751C15.0426 12.8919 15.0426 12.5893 14.8604 12.3982C14.6782 12.215 14.3772 12.215 14.1871 12.3982L12.9673 13.6246V5.47782C12.9673 5.21502 12.7535 5 12.4921 5C12.2307 5 12.0168 5.21502 12.0168 5.47782V13.6246L10.797 12.3982C10.6149 12.215 10.3139 12.215 10.1238 12.3982C9.94158 12.5813 9.94158 12.884 10.1238 13.0751L12.1515 15.1138H12.1673Z" fill="white"/>
</svg>
