<?xml version="1.0" encoding="utf-8"?>
<!-- Generator: Adobe Illustrator 27.8.0, SVG Export Plug-In . SVG Version: 6.00 Build 0)  -->
<svg version="1.1" id="Layer_1" xmlns="http://www.w3.org/2000/svg" xmlns:xlink="http://www.w3.org/1999/xlink" x="0px" y="0px" width="170" height="85"
	 viewBox="0 0 340 170" enable-background="new 0 0 340 170" xml:space="preserve">
<rect x="11.16" y="71.18" fill-rule="evenodd" clip-rule="evenodd" fill="#FAB915" width="317.83" height="39.85"/>
<path fill-rule="evenodd" clip-rule="evenodd" fill="#1B1817" d="M248.85,63.84l13.36-38.12l0.2-0.59h7.8l0.21,0.59l13.43,38.12
	l0.41,1.15h-5.98l-0.2-0.57l-3.24-9.18h-17.06l-3.17,9.17l-0.2,0.58h-5.97L248.85,63.84z M259.72,49.73h13.21l-6.6-18.82h-0.06
	L259.72,49.73z M215.45,64.12V25.13h17.18c2.09,0,3.87,0.18,5.34,0.5c1.54,0.35,2.74,0.89,3.61,1.61c0.89,0.74,1.55,1.76,1.98,3.05
	c0.42,1.23,0.63,2.7,0.63,4.42v5.76c0,1.06-0.11,2.02-0.32,2.88c-0.21,0.88-0.55,1.65-0.99,2.31c-0.46,0.67-1.03,1.22-1.72,1.64
	l-0.07,0.04c0.07,0.04,0.15,0.1,0.22,0.14c0.71,0.46,1.28,1.03,1.69,1.7c0.41,0.66,0.7,1.49,0.9,2.47c0.18,0.94,0.28,2.04,0.28,3.31
	v10.03h-5.91v-8.73c0-1.31-0.1-2.39-0.28-3.25c-0.18-0.79-0.42-1.36-0.74-1.73c-0.29-0.36-0.77-0.62-1.4-0.81
	c-0.73-0.22-1.63-0.33-2.74-0.33h-11.94v14.85h-5.72V64.12z M231.83,30.92h-10.66v13.52h10.66c1.45,0,2.64-0.1,3.56-0.27
	c0.85-0.17,1.44-0.4,1.79-0.7h0.01c0.33-0.29,0.59-0.71,0.77-1.26c0.2-0.62,0.31-1.39,0.31-2.31v-4.45c0-0.95-0.1-1.73-0.29-2.34h0
	c-0.17-0.56-0.42-0.98-0.74-1.25c-0.34-0.29-0.93-0.52-1.78-0.68C234.53,31.01,233.31,30.92,231.83,30.92L231.83,30.92z
	 M202.27,64.12V25.13h5.76v39.86h-5.76V64.12z M165.11,64.12V25.13h17.18c2.09,0,3.87,0.18,5.34,0.5c1.53,0.35,2.73,0.89,3.61,1.61
	c0.88,0.74,1.55,1.76,1.98,3.05c0.42,1.23,0.62,2.7,0.62,4.42v5.76c0,1.06-0.11,2.02-0.31,2.88c-0.22,0.88-0.55,1.65-0.99,2.31
	c-0.45,0.67-1.03,1.22-1.72,1.64l-0.06,0.04c0.07,0.04,0.15,0.1,0.22,0.14c0.72,0.46,1.28,1.03,1.69,1.7
	c0.41,0.66,0.71,1.49,0.91,2.47c0.18,0.94,0.27,2.04,0.27,3.31v10.03h-5.91v-8.73c0-1.31-0.1-2.39-0.29-3.25
	c-0.17-0.79-0.42-1.36-0.75-1.73c-0.29-0.36-0.76-0.62-1.39-0.81c-0.72-0.22-1.62-0.33-2.74-0.33h-11.94v14.85h-5.72V64.12z
	 M181.49,30.92h-10.66v13.52h10.66c1.46,0,2.64-0.1,3.57-0.27c0.84-0.17,1.44-0.4,1.78-0.7h0.01c0.33-0.29,0.59-0.71,0.78-1.26
	c0.19-0.62,0.31-1.39,0.31-2.31v-4.45c0-0.95-0.1-1.73-0.31-2.34h0.01c-0.18-0.56-0.42-0.97-0.75-1.25
	c-0.34-0.29-0.92-0.52-1.76-0.68C184.2,31.01,182.98,30.92,181.49,30.92 M127.17,64.12V25.13h5.72v16.47h19.09V25.13h5.72v39.86
	h-5.72V47.33h-19.09v17.66h-5.72V64.12z M91.19,50.83h4.91v1.59c0,1.13,0.03,2.09,0.11,2.88c0.08,0.77,0.19,1.39,0.34,1.89
	c0.13,0.45,0.31,0.83,0.52,1.12c0.2,0.28,0.43,0.5,0.7,0.66v0c0.22,0.12,0.52,0.24,0.9,0.34c0.41,0.11,0.9,0.2,1.47,0.26
	c0.59,0.07,1.49,0.13,2.71,0.17c1.17,0.02,2.73,0.03,4.69,0.03c1.01,0,1.9-0.03,2.67-0.1c0.76-0.06,1.4-0.16,1.92-0.3
	c0.49-0.12,0.92-0.27,1.28-0.47c0.33-0.17,0.6-0.38,0.8-0.62v-0.01c0.09-0.09,0.18-0.23,0.25-0.42c0.08-0.23,0.16-0.52,0.22-0.89
	c0.07-0.38,0.12-0.83,0.15-1.35c0.04-0.51,0.05-1.13,0.05-1.82c0-1.37-0.06-2.48-0.19-3.33c-0.11-0.75-0.26-1.24-0.45-1.48
	c-0.17-0.24-0.45-0.44-0.85-0.59c-0.44-0.18-1.03-0.3-1.75-0.36l-11.15-0.92c-1.75-0.15-3.24-0.45-4.46-0.91
	c-1.29-0.5-2.3-1.17-3.04-2.02c-0.73-0.85-1.27-1.96-1.62-3.34c-0.35-1.33-0.51-2.91-0.51-4.73c0-1.14,0.05-2.17,0.16-3.1
	c0.11-0.94,0.28-1.78,0.51-2.51c0.23-0.74,0.53-1.42,0.91-2.04c0.38-0.62,0.82-1.18,1.36-1.68v0c0.42-0.4,0.93-0.75,1.52-1.02
	c0.58-0.28,1.22-0.49,1.94-0.64c0.71-0.15,1.65-0.26,2.86-0.33c1.2-0.08,2.63-0.11,4.27-0.11h1.29c1.86,0,3.46,0.04,4.8,0.14
	c1.35,0.1,2.43,0.25,3.24,0.45c0.82,0.2,1.58,0.48,2.27,0.84c0.71,0.36,1.34,0.79,1.9,1.3c0.42,0.37,0.77,0.81,1.08,1.32
	c0.3,0.5,0.54,1.07,0.72,1.7v0.01c0.19,0.61,0.32,1.3,0.4,2.05c0.09,0.74,0.14,1.56,0.14,2.42c0,0.09,0,0.45-0.01,0.75v0.39
	c0,0.25-0.02,0.49-0.04,0.71v0.06l-0.07,0.8h-5.68V35.8c0-0.68-0.02-1.28-0.06-1.79c-0.03-0.51-0.08-0.91-0.16-1.25
	c-0.06-0.31-0.15-0.57-0.24-0.79c-0.09-0.19-0.18-0.34-0.29-0.45c-0.16-0.17-0.41-0.32-0.74-0.47c-0.39-0.16-0.87-0.28-1.46-0.39
	c-0.62-0.1-1.5-0.17-2.69-0.22c-1.17-0.05-2.67-0.08-4.49-0.08c-1.82,0-3.28,0.1-4.39,0.31c-1.01,0.19-1.68,0.45-2.04,0.78
	c-0.36,0.34-0.63,0.87-0.83,1.6c-0.21,0.8-0.33,1.84-0.33,3.1c0,1.04,0.08,1.91,0.21,2.59c0.13,0.62,0.31,1.09,0.54,1.4
	c0.21,0.29,0.55,0.53,1,0.71c0.52,0.21,1.18,0.35,1.99,0.42l11.36,1h0c1.58,0.14,2.93,0.44,4.05,0.91c1.18,0.49,2.12,1.15,2.8,2
	c0.69,0.83,1.19,1.92,1.52,3.27c0.32,1.28,0.48,2.82,0.48,4.59c0,1.27-0.04,2.37-0.13,3.34c-0.07,0.97-0.19,1.8-0.37,2.48v0.01
	c-0.16,0.67-0.39,1.31-0.68,1.89c-0.28,0.59-0.62,1.11-1.02,1.59c-0.49,0.59-1.08,1.09-1.75,1.51c-0.67,0.41-1.4,0.73-2.21,0.96
	c-0.8,0.22-1.91,0.39-3.31,0.5c-1.38,0.11-3.06,0.16-5.03,0.16h-1.8c-1.68,0-3.12-0.04-4.33-0.14c-1.23-0.09-2.21-0.23-2.96-0.43
	c-0.76-0.2-1.46-0.47-2.1-0.81c-0.64-0.34-1.21-0.76-1.72-1.25c-0.52-0.47-0.97-1.01-1.34-1.64c-0.37-0.62-0.67-1.3-0.91-2.07
	c-0.23-0.76-0.4-1.6-0.52-2.53c-0.12-0.93-0.17-1.95-0.17-3.06v-2.74H91.19z M289.4,64.12V25.13h8.06l0.21,0.57l11.57,31.74
	l11.45-31.74l0.2-0.57h8.1v39.86h-5.71V34.51l-10.81,29.92l-0.2,0.57h-6.14l-0.21-0.57l-10.8-29.92v30.48h-5.72V64.12z"/>
<path fill-rule="evenodd" clip-rule="evenodd" fill="#1B1817" d="M316.51,100.27c-2.2,0-3.74-0.43-4.62-1.29
	c-0.87-0.85-1.31-2.36-1.31-4.52v-3.49c0-2.17,0.43-3.68,1.3-4.54c0.87-0.86,2.4-1.29,4.6-1.29h1.02c2.2,0,3.74,0.43,4.62,1.29
	c0.88,0.86,1.32,2.37,1.32,4.54v2.22l-10.6,0.01c-0.01,0.15-0.01,0.32-0.02,0.49c-0.01,0.18-0.01,0.43-0.01,0.76
	c0,1.52,0.24,2.54,0.73,3.06c0.48,0.52,1.46,0.78,2.93,0.78h1.02c1.31,0,2.23-0.19,2.75-0.57c0.51-0.38,0.81-1.04,0.89-1.98h2.28
	c-0.11,1.6-0.62,2.75-1.54,3.46c-0.91,0.71-2.36,1.06-4.35,1.06H316.51z M312.84,91.28h8.34V90.7c0-1.38-0.25-2.32-0.74-2.81
	c-0.5-0.49-1.48-0.74-2.94-0.74h-1.02c-1.46,0-2.43,0.25-2.92,0.74c-0.48,0.5-0.73,1.43-0.73,2.81V91.28z M300.42,100.27
	c-2.21,0-3.74-0.43-4.62-1.29c-0.88-0.86-1.31-2.36-1.31-4.52v-3.49c0-2.17,0.43-3.68,1.31-4.54c0.87-0.86,2.4-1.29,4.59-1.29h1.02
	c2.08,0,3.58,0.4,4.5,1.2c0.92,0.8,1.4,2.11,1.44,3.93l-2.26,0.01c-0.05-1.19-0.32-2.01-0.81-2.46c-0.49-0.45-1.45-0.67-2.86-0.67
	h-1.02c-1.5,0-2.49,0.25-2.95,0.75c-0.46,0.51-0.69,1.69-0.69,3.55v2.52c0,1.87,0.23,3.06,0.7,3.57c0.47,0.5,1.45,0.75,2.94,0.75
	h1.02c1.43,0,2.4-0.24,2.91-0.74c0.51-0.49,0.77-1.39,0.77-2.68v-0.25h2.26v0.28c0,1.92-0.45,3.3-1.36,4.12
	c-0.91,0.83-2.43,1.24-4.55,1.24H300.42z M278.67,100.07V85.34h2.09v2.02c0.36-0.76,0.92-1.32,1.71-1.68
	c0.78-0.36,1.82-0.54,3.1-0.54c1.93,0,3.28,0.39,4.05,1.17c0.77,0.78,1.16,2.15,1.16,4.11v9.65h-2.18v-9.19
	c0-1.54-0.22-2.55-0.68-3.04c-0.46-0.48-1.33-0.73-2.64-0.73c-1.54,0-2.67,0.35-3.38,1.06c-0.71,0.71-1.07,1.82-1.07,3.34v8.56
	H278.67z M272.31,98.52c-0.34,0.62-0.87,1.06-1.6,1.34c-0.74,0.28-1.75,0.41-3.05,0.41c-2.3,0-3.85-0.33-4.63-0.99
	c-0.78-0.66-1.17-1.88-1.17-3.67c0-1.04,0.09-1.85,0.27-2.44c0.18-0.59,0.48-1.06,0.9-1.41c0.36-0.3,0.88-0.51,1.56-0.64
	c0.69-0.13,1.67-0.19,2.96-0.19c1.33,0,2.35,0.11,3.06,0.33c0.71,0.22,1.24,0.58,1.59,1.1v-2.54c0-1.2-0.23-1.98-0.7-2.34
	c-0.47-0.35-1.64-0.53-3.51-0.53c-1.36,0-2.27,0.15-2.72,0.43c-0.44,0.28-0.68,0.82-0.7,1.61h-2.18v-0.34c0-1.26,0.4-2.16,1.22-2.7
	c0.82-0.54,2.22-0.8,4.22-0.8c1.56,0,2.74,0.06,3.55,0.2c0.81,0.13,1.42,0.34,1.81,0.63c0.43,0.34,0.73,0.75,0.91,1.25
	c0.18,0.5,0.27,1.34,0.27,2.55v10.31h-1.99L272.31,98.52z M272.2,96.32v-1.55c0-0.7-0.36-1.21-1.07-1.54
	c-0.71-0.33-1.85-0.49-3.4-0.49c-1.43,0-2.38,0.18-2.86,0.54c-0.48,0.36-0.72,1.05-0.72,2.06c0,1.16,0.25,1.93,0.76,2.32
	c0.51,0.39,1.52,0.58,3.05,0.58c1.37,0,2.41-0.17,3.14-0.5C271.84,97.41,272.2,96.93,272.2,96.32 M249.23,100.07V85.34h2.12v2.02
	c0.31-0.77,0.79-1.33,1.44-1.68c0.66-0.36,1.52-0.53,2.6-0.53c1.61,0,2.73,0.39,3.38,1.16c0.65,0.78,0.97,2.15,0.97,4.12v0.11h-2.21
	V90.1c0-1.17-0.19-1.97-0.56-2.37c-0.38-0.4-1.08-0.6-2.11-0.6c-1.21,0-2.08,0.34-2.62,1.03c-0.54,0.69-0.81,1.81-0.81,3.37v8.56
	H249.23z M244.86,85.34v14.73h-2.1v-2c-0.35,0.75-0.91,1.3-1.71,1.66c-0.79,0.36-1.84,0.54-3.13,0.54c-1.93,0-3.28-0.39-4.05-1.17
	c-0.77-0.78-1.16-2.15-1.16-4.09v-9.67h2.18v9.2c0,1.53,0.23,2.54,0.69,3.02c0.45,0.48,1.35,0.73,2.67,0.73
	c1.53,0,2.65-0.35,3.35-1.05c0.71-0.7,1.06-1.81,1.06-3.33v-8.57H244.86z M215.7,95.69h2.21v0.34c0,0.9,0.28,1.53,0.84,1.88
	c0.56,0.34,1.68,0.51,3.37,0.51c1.89,0,3.06-0.18,3.49-0.52c0.44-0.35,0.66-1.01,0.66-2c0-0.96-0.18-1.61-0.54-1.93
	c-0.36-0.33-1.26-0.52-2.69-0.6c-0.54-0.03-1.25-0.05-2.16-0.08c-1.97-0.05-3.15-0.2-3.52-0.4c-0.56-0.31-0.96-0.73-1.19-1.26
	c-0.24-0.53-0.36-1.29-0.36-2.29c0-1.63,0.42-2.74,1.25-3.31c0.83-0.58,2.66-0.87,5.49-0.87c2.19,0,3.67,0.27,4.45,0.82
	c0.78,0.55,1.17,1.52,1.17,2.9h-2.18v-0.14c0-0.65-0.28-1.1-0.85-1.35c-0.57-0.25-1.69-0.37-3.37-0.37c-1.63,0-2.66,0.15-3.11,0.45
	c-0.45,0.29-0.67,0.92-0.67,1.87c0,0.58,0.04,0.98,0.12,1.21c0.09,0.24,0.23,0.41,0.45,0.53c0.44,0.23,1.41,0.37,2.91,0.41
	c0.38,0.01,0.68,0.02,0.89,0.03c1.23,0.05,2.2,0.11,2.9,0.19c0.71,0.08,1.2,0.19,1.5,0.33c0.65,0.29,1.12,0.73,1.39,1.28
	c0.27,0.56,0.41,1.37,0.41,2.44c0,1.08-0.14,1.91-0.41,2.46c-0.27,0.56-0.75,1.06-1.46,1.49c-0.32,0.2-0.84,0.35-1.55,0.44
	c-0.72,0.09-1.72,0.13-3,0.13c-2.61,0-4.34-0.3-5.19-0.9c-0.85-0.61-1.27-1.7-1.27-3.29V95.69z M199.83,100.07V85.34h2.09v2.02
	c0.36-0.76,0.92-1.32,1.71-1.68c0.78-0.36,1.82-0.54,3.1-0.54c1.93,0,3.28,0.39,4.05,1.17c0.77,0.78,1.16,2.15,1.16,4.11v9.65h-2.18
	v-9.19c0-1.54-0.22-2.55-0.68-3.04c-0.45-0.48-1.33-0.73-2.64-0.73c-1.54,0-2.66,0.35-3.38,1.06c-0.71,0.71-1.07,1.82-1.07,3.34
	v8.56H199.83z M192.82,79.24h2.32v20.83h-2.32V79.24z M172.02,100.27c-2.2,0-3.74-0.43-4.62-1.29c-0.88-0.85-1.31-2.36-1.31-4.52
	v-3.49c0-2.17,0.43-3.68,1.31-4.54c0.87-0.86,2.4-1.29,4.59-1.29h1.02c2.2,0,3.74,0.43,4.62,1.29c0.88,0.86,1.32,2.37,1.32,4.54
	v2.22l-10.61,0.01c-0.01,0.15-0.01,0.32-0.02,0.49c0,0.18-0.01,0.43-0.01,0.76c0,1.52,0.24,2.54,0.73,3.06
	c0.49,0.52,1.47,0.78,2.94,0.78h1.02c1.31,0,2.22-0.19,2.74-0.57c0.51-0.38,0.81-1.04,0.9-1.98h2.28c-0.11,1.6-0.63,2.75-1.54,3.46
	c-0.91,0.71-2.36,1.06-4.35,1.06H172.02z M168.35,91.28h8.34V90.7c0-1.38-0.25-2.32-0.74-2.81c-0.5-0.49-1.48-0.74-2.94-0.74h-1.02
	c-1.46,0-2.42,0.25-2.91,0.74c-0.49,0.5-0.73,1.43-0.73,2.81V91.28z M155.56,87.2v-1.86h2.06c0-0.11,0-0.24,0-0.39
	c-0.01-0.14-0.01-0.34-0.01-0.6c0-1.88,0.33-3.2,0.98-3.97c0.66-0.76,1.8-1.14,3.42-1.14c0.42,0,0.83,0.01,1.23,0.02
	c0.4,0.02,0.8,0.05,1.21,0.08v1.98c-0.12-0.01-0.29-0.02-0.5-0.02c-0.65-0.02-1.09-0.03-1.33-0.03c-1.13,0-1.88,0.17-2.25,0.51
	c-0.37,0.34-0.56,1.19-0.56,2.56v1h4.64v1.86h-4.64v12.87h-2.18V87.2H155.56L155.56,87.2z M150.55,85.34h2.18v14.73h-2.18V85.34z
	 M150.55,79.24h2.18v2.46h-2.18V79.24z M133.79,100.07V79.24h2.26V97.9h11.81v2.18H133.79z"/>
<path fill-rule="evenodd" clip-rule="evenodd" fill="#6E6F71" d="M324.51,133.68h-1.18v-4.81l-4.5-6.06h1.42l3.67,5.07l3.66-5.07
	h1.42l-4.49,6.03V133.68z M308.98,123.96v-1.15h8.13v1.15h-3.47v9.72h-1.21v-9.72H308.98z M304.09,122.81h1.21v10.87h-1.21V122.81z
	 M291.11,133.68v-10.87h4.91c1.22,0,2.06,0.18,2.53,0.54c0.46,0.36,0.69,1,0.69,1.93v1.64c0,0.57-0.11,1.02-0.35,1.34
	c-0.23,0.32-0.58,0.53-1.06,0.61c0.52,0.12,0.88,0.34,1.09,0.66c0.21,0.32,0.31,0.83,0.31,1.52v2.61h-1.25v-2.24
	c0-0.78-0.12-1.3-0.37-1.58c-0.25-0.27-0.73-0.41-1.45-0.41h-3.85v4.23H291.11z M295.78,123.96h-3.47v4.35h3.47
	c0.9,0,1.5-0.11,1.78-0.34c0.28-0.22,0.42-0.62,0.42-1.2v-1.27c0-0.59-0.13-0.99-0.4-1.21C297.3,124.07,296.7,123.96,295.78,123.96
	 M279.03,133.68v-10.87h7.63v1.15h-6.43v3.56h6.24v1.11h-6.24v3.92h6.43v1.13H279.03z M266.71,133.68v-10.87h4.58
	c1.22,0,2.06,0.18,2.52,0.54c0.46,0.36,0.69,1,0.69,1.93v1.64c0,0.95-0.23,1.62-0.68,1.98c-0.46,0.37-1.3,0.55-2.53,0.55h-3.38v4.21
	H266.71z M273.25,126.94v-1.6c0-0.53-0.12-0.89-0.37-1.09c-0.25-0.19-0.78-0.29-1.6-0.29h-3.37v4.35h3.37c0.81,0,1.34-0.1,1.59-0.3
	C273.12,127.82,273.25,127.46,273.25,126.94 M253.23,130.14h1.21v0.2c0,0.65,0.05,1.12,0.15,1.43c0.1,0.3,0.26,0.52,0.48,0.65
	c0.18,0.1,0.45,0.17,0.81,0.21c0.37,0.04,1.12,0.06,2.26,0.06c0.62,0,1.1-0.04,1.44-0.12c0.34-0.08,0.59-0.21,0.76-0.39
	c0.09-0.1,0.16-0.26,0.2-0.5c0.04-0.24,0.07-0.56,0.07-0.95c0-0.81-0.08-1.31-0.25-1.52c-0.16-0.2-0.48-0.33-0.96-0.37l-3.35-0.26
	c-1-0.08-1.69-0.33-2.08-0.75c-0.39-0.42-0.58-1.14-0.58-2.14c0-0.63,0.06-1.14,0.19-1.53c0.13-0.38,0.33-0.7,0.61-0.95
	c0.22-0.19,0.53-0.33,0.92-0.41c0.39-0.08,1.1-0.12,2.09-0.12h0.39c1.11,0,1.9,0.06,2.35,0.17c0.46,0.11,0.84,0.29,1.14,0.55
	c0.21,0.18,0.37,0.43,0.46,0.75c0.1,0.33,0.15,0.73,0.15,1.21c0,0.14-0.01,0.25-0.01,0.33c0,0.07,0,0.14-0.01,0.2h-1.21v-0.27
	c0-0.4-0.02-0.7-0.07-0.91c-0.05-0.21-0.12-0.37-0.22-0.47c-0.15-0.16-0.42-0.26-0.81-0.32c-0.39-0.06-1.12-0.09-2.2-0.09
	c-1.12,0-1.83,0.13-2.11,0.38c-0.28,0.25-0.43,0.76-0.43,1.51c0,0.62,0.09,1.06,0.28,1.29c0.19,0.24,0.55,0.38,1.08,0.42l3.42,0.28
	c0.9,0.08,1.52,0.32,1.88,0.74s0.54,1.11,0.54,2.09c0,0.71-0.05,1.25-0.14,1.6c-0.09,0.36-0.24,0.66-0.46,0.9
	c-0.27,0.3-0.62,0.51-1.06,0.62c-0.45,0.12-1.26,0.18-2.44,0.18h-0.54c-1,0-1.71-0.05-2.12-0.16c-0.42-0.1-0.76-0.28-1.05-0.53
	c-0.27-0.23-0.47-0.55-0.6-0.95c-0.13-0.4-0.2-0.91-0.2-1.52V130.14z M239.52,126.41c0-1.39,0.29-2.36,0.86-2.91
	c0.57-0.54,1.59-0.82,3.06-0.82h1.37c1.48,0,2.5,0.27,3.07,0.81c0.57,0.54,0.85,1.51,0.85,2.92v3.68c0,1.4-0.29,2.36-0.86,2.91
	c-0.58,0.55-1.6,0.82-3.06,0.82h-1.37c-1.47,0-2.48-0.27-3.06-0.82c-0.57-0.54-0.86-1.51-0.86-2.91V126.41z M244.45,123.82h-0.68
	c-0.76,0-1.3,0.04-1.61,0.12c-0.32,0.08-0.59,0.22-0.82,0.42c-0.21,0.18-0.37,0.43-0.45,0.75c-0.09,0.32-0.13,0.86-0.13,1.62v3.08
	c0,0.76,0.04,1.29,0.13,1.6c0.09,0.31,0.24,0.56,0.45,0.74c0.23,0.19,0.5,0.34,0.82,0.42c0.32,0.08,0.86,0.12,1.61,0.12h0.68
	c0.76,0,1.3-0.04,1.63-0.12c0.32-0.08,0.59-0.22,0.82-0.42c0.21-0.18,0.36-0.42,0.44-0.72c0.09-0.3,0.13-0.84,0.13-1.62v-3.09
	c0-0.77-0.04-1.3-0.13-1.62c-0.09-0.31-0.23-0.56-0.45-0.75c-0.22-0.19-0.49-0.33-0.81-0.41
	C245.76,123.86,245.22,123.82,244.45,123.82 M226.89,133.68v-10.87h4.91c1.22,0,2.06,0.18,2.52,0.54c0.46,0.36,0.69,1,0.69,1.93
	v1.64c0,0.57-0.12,1.02-0.35,1.34c-0.23,0.32-0.58,0.53-1.06,0.61c0.52,0.12,0.88,0.34,1.09,0.66c0.21,0.32,0.32,0.83,0.32,1.52
	v2.61h-1.26v-2.24c0-0.78-0.12-1.3-0.37-1.58c-0.25-0.27-0.73-0.41-1.44-0.41h-3.85v4.23H226.89z M231.55,123.96h-3.46v4.35h3.46
	c0.91,0,1.5-0.11,1.78-0.34c0.28-0.22,0.42-0.62,0.42-1.2v-1.27c0-0.59-0.14-0.99-0.41-1.21
	C233.07,124.07,232.47,123.96,231.55,123.96 M214.57,133.68v-10.87h4.58c1.22,0,2.06,0.18,2.52,0.54c0.46,0.36,0.69,1,0.69,1.93
	v1.64c0,0.95-0.23,1.62-0.68,1.98c-0.46,0.37-1.3,0.55-2.53,0.55h-3.38v4.21H214.57z M221.1,126.94v-1.6c0-0.53-0.12-0.89-0.37-1.09
	c-0.25-0.19-0.78-0.29-1.6-0.29h-3.37v4.35h3.37c0.81,0,1.34-0.1,1.59-0.3C220.98,127.82,221.1,127.46,221.1,126.94 M193.14,133.68
	v-10.87h4.91c1.22,0,2.06,0.18,2.52,0.54c0.46,0.36,0.69,1,0.69,1.93v1.64c0,0.57-0.12,1.02-0.35,1.34
	c-0.23,0.32-0.58,0.53-1.06,0.61c0.52,0.12,0.88,0.34,1.09,0.66s0.32,0.83,0.32,1.52v2.61h-1.25v-2.24c0-0.78-0.12-1.3-0.37-1.58
	c-0.25-0.27-0.73-0.41-1.45-0.41h-3.85v4.23H193.14z M197.81,123.96h-3.47v4.35h3.47c0.91,0,1.5-0.11,1.78-0.34
	c0.28-0.22,0.42-0.62,0.42-1.2v-1.27c0-0.59-0.14-0.99-0.41-1.21C199.33,124.07,198.73,123.96,197.81,123.96 M179.13,126.41
	c0-1.39,0.29-2.36,0.86-2.91c0.57-0.54,1.59-0.82,3.06-0.82h1.37c1.48,0,2.5,0.27,3.07,0.81c0.56,0.54,0.85,1.51,0.85,2.92v3.68
	c0,1.4-0.29,2.36-0.86,2.91c-0.58,0.55-1.6,0.82-3.06,0.82h-1.37c-1.46,0-2.48-0.27-3.06-0.82c-0.57-0.54-0.86-1.51-0.86-2.91
	V126.41z M184.07,123.82h-0.67c-0.77,0-1.3,0.04-1.62,0.12c-0.32,0.08-0.59,0.22-0.82,0.42c-0.21,0.18-0.37,0.43-0.45,0.75
	c-0.09,0.32-0.13,0.86-0.13,1.62v3.08c0,0.76,0.04,1.29,0.13,1.6c0.09,0.31,0.24,0.56,0.45,0.74c0.23,0.19,0.5,0.34,0.82,0.42
	c0.32,0.08,0.86,0.12,1.62,0.12h0.67c0.76,0,1.3-0.04,1.62-0.12c0.32-0.08,0.59-0.22,0.83-0.42c0.21-0.18,0.36-0.42,0.44-0.72
	c0.09-0.3,0.13-0.84,0.13-1.62v-3.09c0-0.77-0.04-1.3-0.13-1.62c-0.09-0.31-0.24-0.56-0.45-0.75c-0.22-0.19-0.49-0.33-0.81-0.41
	C185.37,123.86,184.83,123.82,184.07,123.82 M168.09,133.68v-10.87h6.79v1.15h-5.59v3.56h5.43v1.11h-5.43v5.05H168.09z
	 M146.66,133.68v-10.87h4.91c1.22,0,2.06,0.18,2.52,0.54c0.46,0.36,0.69,1,0.69,1.93v1.64c0,0.57-0.12,1.02-0.35,1.34
	c-0.23,0.32-0.58,0.53-1.06,0.61c0.52,0.12,0.88,0.34,1.09,0.66c0.21,0.32,0.32,0.83,0.32,1.52v2.61h-1.26v-2.24
	c0-0.78-0.12-1.3-0.37-1.58c-0.25-0.27-0.73-0.41-1.44-0.41h-3.85v4.23H146.66z M151.32,123.96h-3.46v4.35h3.46
	c0.91,0,1.5-0.11,1.78-0.34c0.28-0.22,0.42-0.62,0.42-1.2v-1.27c0-0.59-0.14-0.99-0.41-1.21
	C152.84,124.07,152.25,123.96,151.32,123.96 M134.57,133.68v-10.87h7.63v1.15h-6.43v3.56h6.25v1.11h-6.25v3.92h6.43v1.13H134.57z
	 M120.46,133.68v-10.87h1.85l5.89,9.7v-9.7h1.19v10.87h-1.86l-5.89-9.71v9.71H120.46z M108.66,123.96v-1.15h8.13v1.15h-3.47v9.72
	h-1.21v-9.72H108.66z M97.42,133.68v-10.87h4.91c1.22,0,2.06,0.18,2.52,0.54c0.46,0.36,0.69,1,0.69,1.93v1.64
	c0,0.57-0.12,1.02-0.35,1.34c-0.23,0.32-0.58,0.53-1.06,0.61c0.52,0.12,0.88,0.34,1.09,0.66c0.21,0.32,0.32,0.83,0.32,1.52v2.61
	h-1.25v-2.24c0-0.78-0.12-1.3-0.37-1.58c-0.25-0.27-0.73-0.41-1.44-0.41h-3.85v4.23H97.42z M102.08,123.96h-3.46v4.35h3.46
	c0.9,0,1.5-0.11,1.78-0.34c0.28-0.22,0.42-0.62,0.42-1.2v-1.27c0-0.59-0.14-0.99-0.41-1.21
	C103.61,124.07,103.01,123.96,102.08,123.96 M83.4,133.68l4.01-10.87h1.98l4.04,10.87h-1.24l-1.04-2.78h-5.5l-1.01,2.78H83.4z
	 M86.05,129.83h4.71l-2.17-5.86h-0.39L86.05,129.83z M73.74,133.68v-10.87h4.58c1.22,0,2.06,0.18,2.52,0.54
	c0.46,0.36,0.69,1,0.69,1.93v1.64c0,0.95-0.23,1.62-0.68,1.98c-0.46,0.37-1.3,0.55-2.53,0.55h-3.38v4.21H73.74z M80.27,126.94v-1.6
	c0-0.53-0.12-0.89-0.37-1.09c-0.25-0.19-0.78-0.29-1.6-0.29h-3.37v4.35h3.37c0.81,0,1.34-0.1,1.59-0.3
	C80.15,127.82,80.27,127.46,80.27,126.94 M52.31,133.68v-10.87h4.91c1.22,0,2.06,0.18,2.52,0.54c0.46,0.36,0.69,1,0.69,1.93v1.64
	c0,0.57-0.12,1.02-0.35,1.34c-0.23,0.32-0.58,0.53-1.06,0.61c0.51,0.12,0.88,0.34,1.09,0.66c0.21,0.32,0.32,0.83,0.32,1.52v2.61
	h-1.26v-2.24c0-0.78-0.12-1.3-0.37-1.58c-0.25-0.27-0.73-0.41-1.45-0.41H53.5v4.23H52.31z M56.97,123.96H53.5v4.35h3.47
	c0.9,0,1.5-0.11,1.78-0.34c0.28-0.22,0.42-0.62,0.42-1.2v-1.27c0-0.59-0.14-0.99-0.41-1.21C58.5,124.07,57.9,123.96,56.97,123.96
	 M38.49,122.81h1.21v7.13c0,0.7,0.04,1.19,0.11,1.47c0.08,0.28,0.21,0.5,0.39,0.67c0.19,0.18,0.43,0.3,0.7,0.37
	c0.27,0.07,0.74,0.11,1.4,0.11h1.14c0.66,0,1.13-0.03,1.41-0.11c0.27-0.07,0.51-0.19,0.7-0.37c0.18-0.17,0.31-0.38,0.38-0.66
	c0.07-0.28,0.11-0.77,0.11-1.48v-7.13h1.21v7.28c0,1.39-0.28,2.36-0.82,2.9c-0.55,0.55-1.51,0.82-2.9,0.82h-1.32
	c-1.38,0-2.36-0.27-2.9-0.82c-0.55-0.55-0.82-1.51-0.82-2.9V122.81z M24.59,126.41c0-1.39,0.29-2.36,0.86-2.91
	c0.57-0.54,1.6-0.82,3.06-0.82h1.37c1.48,0,2.5,0.27,3.07,0.81c0.56,0.54,0.85,1.51,0.85,2.92v3.68c0,1.4-0.29,2.36-0.87,2.91
	c-0.57,0.55-1.6,0.82-3.06,0.82h-1.37c-1.47,0-2.49-0.27-3.06-0.82c-0.57-0.54-0.86-1.51-0.86-2.91V126.41z M29.52,123.82h-0.67
	c-0.76,0-1.3,0.04-1.62,0.12c-0.32,0.08-0.59,0.22-0.82,0.42c-0.21,0.18-0.37,0.43-0.45,0.75c-0.09,0.32-0.13,0.86-0.13,1.62v3.08
	c0,0.76,0.04,1.29,0.13,1.6c0.09,0.31,0.24,0.56,0.45,0.74c0.23,0.19,0.5,0.34,0.82,0.42c0.32,0.08,0.86,0.12,1.62,0.12h0.67
	c0.76,0,1.3-0.04,1.62-0.12c0.32-0.08,0.6-0.22,0.83-0.42c0.21-0.18,0.36-0.42,0.44-0.72c0.09-0.3,0.13-0.84,0.13-1.62v-3.09
	c0-0.77-0.05-1.3-0.14-1.62c-0.09-0.31-0.23-0.56-0.45-0.75c-0.22-0.19-0.5-0.33-0.81-0.41C30.83,123.86,30.29,123.82,29.52,123.82
	 M17.23,133.68h-1.18v-4.81l-4.5-6.06h1.42l3.67,5.07l3.66-5.07h1.42l-4.48,6.03V133.68z"/>
<path fill-rule="evenodd" clip-rule="evenodd" fill="#2A3A46" d="M308.56,158h0.62v4.88c0,0.37-0.03,0.71-0.11,1.04
	c-0.07,0.33-0.2,0.62-0.39,0.87c-0.19,0.25-0.45,0.45-0.77,0.6c-0.33,0.15-0.75,0.22-1.26,0.22c-0.4,0-0.74-0.05-1.02-0.15
	c-0.29-0.1-0.52-0.23-0.7-0.38c-0.18-0.15-0.32-0.32-0.41-0.51c-0.09-0.18-0.14-0.36-0.15-0.52h0.67c0.04,0.2,0.12,0.37,0.23,0.5
	c0.1,0.13,0.22,0.23,0.37,0.3c0.14,0.07,0.3,0.13,0.47,0.15c0.17,0.03,0.36,0.04,0.54,0.04c0.42,0,0.77-0.07,1.02-0.22
	c0.25-0.15,0.45-0.34,0.58-0.57c0.13-0.23,0.21-0.5,0.25-0.8c0.04-0.3,0.05-0.6,0.05-0.92c-0.2,0.34-0.48,0.59-0.83,0.76
	c-0.36,0.17-0.72,0.25-1.11,0.25c-0.41,0-0.76-0.08-1.07-0.23c-0.3-0.16-0.55-0.37-0.75-0.62c-0.19-0.26-0.35-0.57-0.44-0.92
	c-0.1-0.35-0.15-0.71-0.15-1.09c0-0.39,0.05-0.77,0.14-1.11c0.09-0.35,0.23-0.65,0.43-0.9c0.2-0.26,0.45-0.46,0.76-0.6
	c0.3-0.15,0.68-0.22,1.11-0.22c0.17,0,0.35,0.02,0.53,0.07c0.18,0.05,0.36,0.12,0.53,0.21c0.17,0.09,0.33,0.2,0.47,0.35
	c0.14,0.14,0.26,0.3,0.35,0.47h0.02V158z M308.56,160.72c0-0.33-0.04-0.63-0.12-0.91c-0.08-0.28-0.19-0.53-0.35-0.73
	c-0.15-0.2-0.34-0.37-0.57-0.49c-0.23-0.12-0.49-0.18-0.78-0.18c-0.26,0-0.51,0.05-0.73,0.14c-0.22,0.09-0.42,0.23-0.58,0.41
	c-0.17,0.18-0.3,0.4-0.39,0.66c-0.09,0.26-0.14,0.56-0.14,0.9c-0.01,0.34,0.01,0.66,0.09,0.95c0.07,0.3,0.18,0.55,0.33,0.78
	c0.16,0.22,0.35,0.4,0.58,0.53c0.24,0.13,0.52,0.19,0.85,0.19c0.28,0,0.54-0.06,0.76-0.19c0.23-0.12,0.42-0.28,0.57-0.49
	c0.16-0.2,0.28-0.44,0.36-0.72C308.52,161.32,308.56,161.03,308.56,160.72"/>
<path fill-rule="evenodd" clip-rule="evenodd" fill="#2A3A46" d="M310.95,163.4h-0.63V158h0.63v1.01h0.02
	c0.18-0.43,0.4-0.73,0.67-0.9c0.27-0.17,0.64-0.26,1.09-0.26v0.68c-0.36-0.01-0.65,0.05-0.88,0.16c-0.23,0.12-0.41,0.28-0.54,0.48
	c-0.14,0.2-0.23,0.44-0.28,0.72c-0.05,0.28-0.08,0.56-0.08,0.86V163.4z"/>
<path fill-rule="evenodd" clip-rule="evenodd" fill="#2A3A46" d="M315.45,163.55c-0.35,0-0.67-0.07-0.97-0.18
	c-0.3-0.12-0.57-0.3-0.79-0.53c-0.23-0.24-0.4-0.54-0.54-0.89c-0.14-0.35-0.2-0.77-0.2-1.24c0-0.39,0.05-0.76,0.16-1.11
	c0.11-0.35,0.26-0.64,0.47-0.9c0.21-0.26,0.47-0.46,0.78-0.61c0.31-0.15,0.68-0.22,1.1-0.22c0.42,0,0.79,0.08,1.11,0.22
	c0.32,0.15,0.57,0.36,0.78,0.61c0.21,0.25,0.37,0.55,0.46,0.9c0.1,0.35,0.16,0.72,0.16,1.12c0,0.43-0.06,0.82-0.18,1.17
	c-0.12,0.35-0.29,0.65-0.51,0.9c-0.22,0.25-0.48,0.44-0.79,0.58C316.17,163.48,315.82,163.55,315.45,163.55 M317.28,160.7
	c0-0.32-0.03-0.62-0.1-0.9c-0.07-0.28-0.18-0.52-0.32-0.73c-0.15-0.2-0.34-0.37-0.56-0.49c-0.23-0.12-0.51-0.18-0.85-0.18
	c-0.33,0-0.6,0.06-0.84,0.19c-0.23,0.13-0.42,0.3-0.57,0.51c-0.15,0.21-0.25,0.45-0.32,0.73c-0.07,0.27-0.11,0.56-0.11,0.85
	c0,0.34,0.04,0.64,0.12,0.92c0.08,0.28,0.19,0.53,0.35,0.73c0.16,0.2,0.35,0.36,0.57,0.47c0.23,0.11,0.5,0.17,0.79,0.17
	c0.33,0,0.61-0.06,0.84-0.19c0.23-0.13,0.42-0.3,0.57-0.52c0.14-0.21,0.25-0.46,0.32-0.73C317.25,161.27,317.28,160.99,317.28,160.7
	"/>
<path fill-rule="evenodd" clip-rule="evenodd" fill="#2A3A46" d="M322.29,158h0.63v5.4h-0.63v-0.75c-0.08,0.1-0.17,0.2-0.28,0.3
	c-0.1,0.11-0.22,0.2-0.36,0.29c-0.14,0.09-0.29,0.16-0.47,0.22c-0.18,0.06-0.39,0.09-0.63,0.09c-0.36,0-0.66-0.05-0.91-0.15
	c-0.24-0.1-0.44-0.24-0.59-0.42c-0.15-0.18-0.26-0.39-0.33-0.63c-0.06-0.24-0.1-0.5-0.1-0.79V158h0.62v3.55
	c0,0.47,0.11,0.82,0.33,1.07c0.21,0.24,0.57,0.37,1.06,0.37c0.26,0,0.49-0.05,0.7-0.15c0.2-0.1,0.37-0.24,0.52-0.42
	c0.14-0.18,0.25-0.4,0.32-0.65c0.08-0.25,0.12-0.52,0.12-0.82V158z"/>
<path fill-rule="evenodd" clip-rule="evenodd" fill="#2A3A46" d="M324.65,165.53h-0.62V158h0.62v0.95h0.02
	c0.09-0.17,0.2-0.33,0.35-0.47c0.14-0.14,0.3-0.25,0.47-0.35c0.17-0.09,0.35-0.16,0.53-0.21c0.18-0.05,0.36-0.07,0.54-0.07
	c0.44,0,0.81,0.07,1.12,0.22c0.31,0.15,0.56,0.35,0.75,0.6c0.2,0.25,0.35,0.55,0.43,0.9c0.09,0.35,0.14,0.72,0.14,1.11
	c0,0.38-0.05,0.74-0.15,1.09c-0.1,0.35-0.24,0.65-0.44,0.92c-0.2,0.26-0.45,0.47-0.75,0.62c-0.31,0.16-0.66,0.23-1.07,0.23
	c-0.38,0-0.75-0.08-1.1-0.25c-0.35-0.17-0.63-0.42-0.83-0.76V165.53z M324.65,160.72c0,0.31,0.04,0.59,0.13,0.87
	c0.08,0.27,0.2,0.51,0.36,0.72c0.16,0.21,0.35,0.37,0.57,0.49c0.22,0.12,0.48,0.19,0.76,0.19c0.32,0,0.6-0.06,0.84-0.19
	c0.24-0.13,0.44-0.3,0.59-0.53c0.16-0.22,0.26-0.48,0.34-0.78c0.07-0.3,0.1-0.61,0.08-0.95c0-0.34-0.05-0.64-0.14-0.9
	c-0.09-0.26-0.22-0.48-0.39-0.66c-0.17-0.18-0.36-0.32-0.58-0.41c-0.22-0.09-0.47-0.14-0.74-0.14c-0.29,0-0.55,0.06-0.78,0.18
	c-0.23,0.12-0.42,0.28-0.57,0.49c-0.15,0.2-0.27,0.45-0.35,0.73C324.7,160.09,324.65,160.4,324.65,160.72"/>
<path fill-rule="evenodd" clip-rule="evenodd" fill="#0E83C6" d="M233.82,159.17c0.09,0.85,0.41,1.45,0.97,1.79
	c0.56,0.34,1.23,0.51,2.01,0.51c0.27,0,0.58-0.02,0.93-0.06c0.35-0.04,0.68-0.13,0.98-0.24c0.31-0.12,0.56-0.29,0.75-0.53
	c0.2-0.23,0.29-0.53,0.27-0.9c-0.01-0.38-0.15-0.68-0.41-0.92c-0.25-0.24-0.58-0.43-0.98-0.57c-0.4-0.15-0.85-0.27-1.36-0.37
	c-0.51-0.1-1.03-0.21-1.56-0.34c-0.54-0.12-1.07-0.26-1.57-0.43c-0.5-0.17-0.95-0.4-1.35-0.69c-0.4-0.29-0.72-0.66-0.96-1.11
	c-0.24-0.45-0.36-1.01-0.36-1.67c0-0.72,0.18-1.31,0.53-1.8c0.35-0.48,0.79-0.88,1.33-1.17c0.54-0.3,1.13-0.51,1.79-0.62
	c0.65-0.12,1.28-0.18,1.87-0.18c0.68,0,1.33,0.07,1.95,0.22c0.62,0.14,1.18,0.37,1.68,0.7c0.5,0.32,0.92,0.75,1.25,1.26
	c0.33,0.52,0.54,1.14,0.63,1.88h-3.04c-0.14-0.7-0.46-1.17-0.96-1.41c-0.5-0.24-1.08-0.36-1.72-0.36c-0.2,0-0.45,0.01-0.73,0.05
	c-0.28,0.03-0.55,0.1-0.79,0.19c-0.25,0.09-0.45,0.23-0.62,0.41c-0.17,0.18-0.26,0.41-0.26,0.7c0,0.36,0.13,0.65,0.37,0.87
	c0.25,0.22,0.57,0.4,0.97,0.55c0.4,0.15,0.86,0.27,1.37,0.37c0.51,0.1,1.04,0.21,1.59,0.33c0.53,0.12,1.05,0.26,1.56,0.43
	c0.51,0.17,0.97,0.4,1.37,0.69c0.4,0.29,0.73,0.65,0.97,1.1c0.25,0.44,0.37,0.99,0.37,1.64c0,0.78-0.18,1.45-0.54,1.99
	c-0.36,0.55-0.82,0.99-1.4,1.33c-0.57,0.34-1.21,0.58-1.9,0.74c-0.7,0.15-1.39,0.23-2.07,0.23c-0.84,0-1.61-0.1-2.31-0.28
	c-0.71-0.18-1.32-0.47-1.84-0.86c-0.52-0.38-0.93-0.86-1.23-1.43c-0.3-0.57-0.46-1.25-0.47-2.03H233.82z"/>
<path fill-rule="evenodd" clip-rule="evenodd" fill="#0E83C6" d="M244.16,154.13c0.31-0.47,0.7-0.84,1.18-1.12
	c0.48-0.28,1.01-0.48,1.61-0.6c0.59-0.12,1.19-0.18,1.8-0.18c0.54,0,1.1,0.03,1.66,0.11c0.56,0.08,1.07,0.23,1.53,0.45
	s0.84,0.54,1.13,0.94c0.3,0.4,0.44,0.92,0.44,1.59v5.66c0,0.49,0.03,0.96,0.08,1.41c0.06,0.45,0.16,0.78,0.3,1.01h-3.03
	c-0.06-0.17-0.1-0.34-0.14-0.52c-0.03-0.17-0.06-0.35-0.07-0.54c-0.48,0.49-1.04,0.84-1.68,1.03c-0.65,0.2-1.3,0.3-1.98,0.3
	c-0.52,0-1-0.06-1.45-0.19c-0.45-0.13-0.84-0.33-1.18-0.59c-0.34-0.27-0.6-0.6-0.79-1.01c-0.19-0.4-0.28-0.89-0.28-1.45
	c0-0.62,0.11-1.12,0.33-1.52c0.21-0.4,0.5-0.72,0.84-0.96c0.34-0.24,0.74-0.42,1.18-0.54c0.44-0.12,0.89-0.21,1.33-0.29
	c0.45-0.07,0.89-0.12,1.32-0.17c0.44-0.04,0.82-0.11,1.16-0.19c0.34-0.08,0.6-0.21,0.8-0.37c0.2-0.16,0.29-0.39,0.27-0.7
	c0-0.33-0.05-0.58-0.16-0.77c-0.11-0.19-0.24-0.34-0.42-0.44c-0.18-0.1-0.38-0.17-0.61-0.21c-0.23-0.03-0.48-0.05-0.74-0.05
	c-0.59,0-1.05,0.13-1.39,0.38c-0.34,0.25-0.53,0.67-0.59,1.26h-2.99C243.68,155.17,243.85,154.59,244.16,154.13 M250.06,158.34
	c-0.19,0.06-0.39,0.12-0.61,0.16c-0.22,0.04-0.45,0.08-0.68,0.11c-0.24,0.03-0.48,0.06-0.72,0.11c-0.23,0.04-0.45,0.1-0.67,0.17
	c-0.21,0.07-0.4,0.17-0.56,0.28c-0.16,0.12-0.29,0.27-0.39,0.46c-0.1,0.18-0.15,0.41-0.15,0.69c0,0.27,0.05,0.49,0.15,0.67
	c0.1,0.18,0.23,0.33,0.4,0.43c0.17,0.11,0.37,0.18,0.59,0.22c0.22,0.04,0.45,0.06,0.69,0.06c0.59,0,1.05-0.1,1.37-0.29
	c0.33-0.2,0.56-0.43,0.72-0.71c0.16-0.27,0.25-0.55,0.29-0.83c0.03-0.28,0.05-0.5,0.05-0.67v-1.12
	C250.41,158.19,250.25,158.28,250.06,158.34"/>
<path fill-rule="evenodd" clip-rule="evenodd" fill="#0E83C6" d="M257.54,152.53v1.51h0.06c0.38-0.63,0.87-1.09,1.47-1.38
	c0.6-0.29,1.22-0.43,1.85-0.43c0.8,0,1.46,0.11,1.97,0.33c0.51,0.21,0.92,0.52,1.21,0.9c0.3,0.39,0.5,0.86,0.62,1.41
	c0.12,0.55,0.18,1.17,0.18,1.84v6.69h-2.98v-6.14c0-0.9-0.14-1.57-0.42-2c-0.28-0.44-0.78-0.66-1.49-0.66
	c-0.81,0-1.4,0.24-1.77,0.73c-0.37,0.48-0.54,1.28-0.54,2.38v5.7h-2.99v-10.87H257.54z"/>
<rect x="266.05" y="148.39" fill-rule="evenodd" clip-rule="evenodd" fill="#0E83C6" width="2.99" height="15.01"/>
<path fill-rule="evenodd" clip-rule="evenodd" fill="#0E83C6" d="M270.77,154.13c0.31-0.47,0.7-0.84,1.18-1.12
	c0.47-0.28,1.01-0.48,1.61-0.6c0.6-0.12,1.2-0.18,1.8-0.18c0.55,0,1.1,0.03,1.66,0.11c0.56,0.08,1.07,0.23,1.54,0.45
	c0.46,0.22,0.84,0.54,1.13,0.94c0.29,0.4,0.44,0.92,0.44,1.59v5.66c0,0.49,0.02,0.96,0.08,1.41c0.06,0.45,0.16,0.78,0.3,1.01h-3.03
	c-0.05-0.17-0.1-0.34-0.14-0.52c-0.03-0.17-0.06-0.35-0.07-0.54c-0.48,0.49-1.04,0.84-1.68,1.03c-0.64,0.2-1.3,0.3-1.98,0.3
	c-0.52,0-1-0.06-1.45-0.19c-0.45-0.13-0.84-0.33-1.18-0.59c-0.34-0.27-0.6-0.6-0.79-1.01c-0.19-0.4-0.29-0.89-0.29-1.45
	c0-0.62,0.11-1.12,0.33-1.52c0.22-0.4,0.5-0.72,0.84-0.96c0.35-0.24,0.74-0.42,1.18-0.54c0.44-0.12,0.89-0.21,1.34-0.29
	c0.45-0.07,0.89-0.12,1.32-0.17c0.43-0.04,0.82-0.11,1.16-0.19c0.34-0.08,0.6-0.21,0.8-0.37c0.19-0.16,0.29-0.39,0.27-0.7
	c0-0.33-0.05-0.58-0.16-0.77c-0.11-0.19-0.25-0.34-0.42-0.44c-0.18-0.1-0.38-0.17-0.61-0.21c-0.23-0.03-0.48-0.05-0.75-0.05
	c-0.59,0-1.05,0.13-1.39,0.38c-0.34,0.25-0.53,0.67-0.59,1.26h-2.98C270.28,155.17,270.46,154.59,270.77,154.13 M276.67,158.34
	c-0.19,0.06-0.39,0.12-0.61,0.16c-0.21,0.04-0.44,0.08-0.68,0.11c-0.24,0.03-0.48,0.06-0.72,0.11c-0.22,0.04-0.44,0.1-0.66,0.17
	c-0.22,0.07-0.41,0.17-0.57,0.28c-0.16,0.12-0.29,0.27-0.39,0.46c-0.1,0.18-0.15,0.41-0.15,0.69c0,0.27,0.05,0.49,0.15,0.67
	c0.1,0.18,0.23,0.33,0.4,0.43c0.17,0.11,0.37,0.18,0.59,0.22c0.22,0.04,0.46,0.06,0.7,0.06c0.59,0,1.05-0.1,1.37-0.29
	c0.32-0.2,0.56-0.43,0.72-0.71s0.25-0.55,0.28-0.83c0.03-0.28,0.05-0.5,0.05-0.67v-1.12C277.02,158.19,276.86,158.28,276.67,158.34"
	/>
<path fill-rule="evenodd" clip-rule="evenodd" fill="#0E83C6" d="M284.09,152.53V154h0.04c0.39-0.56,0.87-1,1.42-1.3
	c0.55-0.31,1.19-0.46,1.9-0.46c0.69,0,1.31,0.13,1.88,0.4c0.57,0.26,1,0.74,1.29,1.41c0.33-0.48,0.76-0.9,1.31-1.26
	c0.55-0.36,1.21-0.54,1.97-0.54c0.58,0,1.11,0.07,1.6,0.21s0.91,0.37,1.26,0.67c0.35,0.31,0.62,0.71,0.82,1.21
	c0.19,0.5,0.29,1.1,0.29,1.8v7.28h-2.98v-6.16c0-0.37-0.01-0.71-0.04-1.03c-0.03-0.32-0.11-0.6-0.23-0.84
	c-0.13-0.24-0.31-0.43-0.55-0.57c-0.25-0.14-0.58-0.21-1-0.21c-0.42,0-0.76,0.08-1.02,0.24c-0.26,0.16-0.46,0.38-0.61,0.63
	c-0.15,0.26-0.25,0.55-0.3,0.88c-0.05,0.33-0.07,0.66-0.07,1v6.05h-2.99v-6.1c0-0.32,0-0.64-0.02-0.96
	c-0.01-0.31-0.07-0.6-0.18-0.87c-0.1-0.27-0.28-0.48-0.53-0.64c-0.24-0.16-0.6-0.24-1.08-0.24c-0.14,0-0.33,0.03-0.56,0.09
	c-0.23,0.06-0.45,0.18-0.67,0.36c-0.22,0.18-0.4,0.43-0.56,0.76c-0.15,0.33-0.23,0.76-0.23,1.29v6.31h-2.99v-10.87H284.09z"/>
<path fill-rule="evenodd" clip-rule="evenodd" fill="#0E83C6" d="M220.35,154.71c0-1.73-1.42-3.13-3.17-3.13
	c-1.75,0-3.17,1.4-3.17,3.13c0,1.73,1.42,3.13,3.17,3.13C218.93,157.85,220.35,156.44,220.35,154.71"/>
<path fill-rule="evenodd" clip-rule="evenodd" fill="#0E83C6" d="M216.05,159.09c-0.78-0.72-1.5-1.18-2.05-2.05
	c-0.47-0.63-0.79-1.49-0.79-2.28c0-0.79,0.24-1.42,0.63-1.97c0.52-0.82,1.05-1.64,1.5-2.36c0,0,0,0,0,0
	c0.21-0.35,0.42-0.72,0.65-1.13c0.47-0.87,1.18-1.89,0.31-3.07c0,0-0.23,0.39-6.85,9.29c-0.01,0.01-0.02,0.02-0.02,0.03
	c-0.09,0.14-0.15,0.3-0.15,0.5v0.01c0,0.25,0.07,0.46,0.19,0.64h0l2.49,4.04c0.23,0.44,0.3,1.24,0.31,1.89c0,0.29,0,0.96,0,1.35
	c0,0.71,0.6,1.12,1.37,1.13l3.06,0v-3.44c0.01-0.24,0.01-1.38-0.07-1.64C216.54,159.63,216.36,159.37,216.05,159.09"/>
<path fill-rule="evenodd" clip-rule="evenodd" fill="#0E83C6" d="M218.32,159.09c0.78-0.72,1.49-1.18,2.05-2.05
	c0.47-0.63,0.79-1.49,0.79-2.28c0-0.79-0.24-1.42-0.63-1.97c-0.51-0.82-1.05-1.64-1.49-2.36v0c-0.21-0.35-0.42-0.72-0.64-1.13
	c-0.47-0.87-1.18-1.89-0.32-3.07c0,0,0.24,0.39,6.85,9.29c0.01,0.01,0.01,0.02,0.02,0.03c0.09,0.14,0.14,0.3,0.14,0.5v0.01
	c0,0.25-0.07,0.46-0.19,0.64h0l-2.49,4.04c-0.23,0.44-0.3,1.24-0.31,1.89c0,0.29,0,0.96,0,1.35c0,0.71-0.6,1.12-1.37,1.13l-3.06,0
	v-3.44c0-0.24-0.01-1.38,0.07-1.64C217.83,159.63,218,159.37,218.32,159.09"/>
<path fill-rule="evenodd" clip-rule="evenodd" fill="#2A3A46" d="M141.03,160.25c0.12-0.01,0.26-0.03,0.42-0.06
	c0.16-0.02,0.3-0.06,0.4-0.11c0.1-0.05,0.17-0.13,0.19-0.25c0.02-0.11,0.03-0.22,0.03-0.32c0-0.32-0.1-0.58-0.31-0.79
	c-0.2-0.2-0.55-0.31-1.04-0.31c-0.22,0-0.41,0.02-0.59,0.06c-0.19,0.04-0.34,0.1-0.48,0.19c-0.14,0.1-0.25,0.22-0.34,0.38
	c-0.08,0.16-0.14,0.35-0.17,0.59h-0.64c0.02-0.32,0.1-0.59,0.22-0.82c0.13-0.22,0.29-0.41,0.49-0.55c0.2-0.14,0.43-0.25,0.69-0.31
	c0.26-0.07,0.54-0.1,0.83-0.1c0.27,0,0.53,0.03,0.76,0.09c0.24,0.06,0.45,0.16,0.63,0.28c0.18,0.13,0.32,0.3,0.42,0.52
	c0.1,0.22,0.15,0.48,0.15,0.79v2.95c0,0.24,0.04,0.39,0.13,0.46c0.08,0.07,0.26,0.05,0.53-0.05v0.49c-0.05,0.01-0.12,0.03-0.21,0.06
	c-0.09,0.03-0.19,0.04-0.28,0.04c-0.1,0-0.19-0.01-0.28-0.03c-0.1-0.01-0.19-0.05-0.25-0.1c-0.06-0.05-0.11-0.12-0.15-0.19
	c-0.04-0.07-0.07-0.15-0.08-0.24c-0.01-0.09-0.02-0.18-0.02-0.28c-0.26,0.29-0.56,0.52-0.9,0.67c-0.34,0.16-0.71,0.23-1.11,0.23
	c-0.24,0-0.47-0.03-0.69-0.09c-0.22-0.06-0.41-0.16-0.58-0.29c-0.17-0.13-0.3-0.29-0.39-0.49c-0.1-0.19-0.15-0.42-0.15-0.68
	c0-0.92,0.63-1.46,1.89-1.63L141.03,160.25z M142.08,160.56c-0.26,0.11-0.53,0.18-0.8,0.22c-0.27,0.04-0.54,0.06-0.81,0.08
	c-0.48,0.04-0.85,0.15-1.12,0.33c-0.27,0.18-0.4,0.46-0.4,0.82c0,0.17,0.03,0.31,0.1,0.43c0.07,0.12,0.16,0.22,0.26,0.3
	c0.11,0.08,0.23,0.14,0.38,0.18c0.14,0.04,0.29,0.06,0.43,0.06c0.25,0,0.5-0.03,0.73-0.1c0.24-0.06,0.45-0.16,0.63-0.29
	c0.19-0.13,0.33-0.29,0.44-0.49c0.11-0.2,0.16-0.43,0.16-0.71V160.56z"/>
<path fill-rule="evenodd" clip-rule="evenodd" fill="#2A3A46" d="M144.24,161.71c0.1,0.47,0.27,0.79,0.53,0.99
	c0.25,0.19,0.62,0.29,1.09,0.29c0.23,0,0.43-0.03,0.59-0.09c0.17-0.05,0.31-0.13,0.41-0.22c0.11-0.09,0.19-0.2,0.24-0.32
	c0.06-0.12,0.08-0.24,0.08-0.38c0-0.26-0.08-0.46-0.25-0.59c-0.17-0.13-0.38-0.23-0.64-0.3c-0.26-0.07-0.53-0.14-0.83-0.19
	c-0.3-0.05-0.58-0.13-0.84-0.23c-0.26-0.11-0.47-0.25-0.64-0.45c-0.17-0.19-0.25-0.47-0.25-0.83c0-0.45,0.16-0.82,0.5-1.11
	c0.33-0.29,0.8-0.43,1.4-0.43c0.58,0,1.06,0.13,1.42,0.39c0.37,0.26,0.59,0.7,0.66,1.3h-0.63c-0.06-0.41-0.21-0.71-0.48-0.88
	c-0.26-0.17-0.59-0.25-0.98-0.25c-0.4,0-0.7,0.08-0.91,0.25s-0.31,0.4-0.31,0.68c0,0.24,0.08,0.43,0.26,0.55
	c0.17,0.13,0.38,0.23,0.64,0.32c0.26,0.08,0.53,0.15,0.84,0.21c0.3,0.06,0.57,0.15,0.83,0.26c0.26,0.12,0.47,0.27,0.64,0.47
	c0.17,0.19,0.25,0.46,0.25,0.81c0,0.26-0.05,0.48-0.17,0.68c-0.11,0.2-0.26,0.37-0.46,0.5c-0.19,0.13-0.43,0.23-0.7,0.3
	c-0.27,0.06-0.56,0.1-0.88,0.1c-0.32,0-0.6-0.04-0.85-0.14c-0.25-0.09-0.46-0.22-0.63-0.39c-0.18-0.16-0.31-0.36-0.41-0.58
	c-0.1-0.22-0.15-0.46-0.17-0.72H144.24z"/>
<path fill-rule="evenodd" clip-rule="evenodd" fill="#2A3A46" d="M148.99,161.71c0.1,0.47,0.27,0.79,0.53,0.99
	c0.25,0.19,0.62,0.29,1.09,0.29c0.23,0,0.43-0.03,0.59-0.09c0.17-0.05,0.31-0.13,0.41-0.22c0.11-0.09,0.19-0.2,0.24-0.32
	c0.06-0.12,0.08-0.24,0.08-0.38c0-0.26-0.08-0.46-0.25-0.59c-0.17-0.13-0.38-0.23-0.64-0.3c-0.26-0.07-0.54-0.14-0.83-0.19
	c-0.3-0.05-0.58-0.13-0.84-0.23c-0.26-0.11-0.47-0.25-0.64-0.45c-0.17-0.19-0.25-0.47-0.25-0.83c0-0.45,0.17-0.82,0.5-1.11
	c0.33-0.29,0.8-0.43,1.4-0.43c0.58,0,1.06,0.13,1.42,0.39c0.37,0.26,0.59,0.7,0.66,1.3h-0.63c-0.06-0.41-0.21-0.71-0.48-0.88
	c-0.26-0.17-0.59-0.25-0.98-0.25c-0.4,0-0.7,0.08-0.91,0.25c-0.21,0.17-0.31,0.4-0.31,0.68c0,0.24,0.08,0.43,0.26,0.55
	c0.17,0.13,0.38,0.23,0.64,0.32c0.26,0.08,0.54,0.15,0.84,0.21c0.3,0.06,0.57,0.15,0.83,0.26c0.26,0.12,0.47,0.27,0.64,0.47
	c0.17,0.19,0.26,0.46,0.26,0.81c0,0.26-0.06,0.48-0.17,0.68c-0.11,0.2-0.26,0.37-0.46,0.5c-0.2,0.13-0.43,0.23-0.7,0.3
	c-0.27,0.06-0.56,0.1-0.88,0.1c-0.32,0-0.6-0.04-0.85-0.14c-0.25-0.09-0.46-0.22-0.63-0.39c-0.18-0.16-0.31-0.36-0.41-0.58
	c-0.1-0.22-0.15-0.46-0.16-0.72H148.99z"/>
<path fill-rule="evenodd" clip-rule="evenodd" fill="#2A3A46" d="M155.52,163.55c-0.35,0-0.67-0.07-0.97-0.18
	c-0.3-0.12-0.56-0.3-0.79-0.54c-0.22-0.23-0.4-0.53-0.54-0.89c-0.13-0.36-0.2-0.77-0.2-1.24c0-0.39,0.05-0.76,0.16-1.11
	c0.11-0.35,0.26-0.64,0.47-0.9s0.47-0.46,0.78-0.61c0.32-0.15,0.68-0.22,1.1-0.22c0.43,0,0.79,0.08,1.11,0.22
	c0.31,0.15,0.57,0.35,0.78,0.61c0.21,0.25,0.37,0.55,0.47,0.9c0.1,0.35,0.15,0.72,0.15,1.12c0,0.43-0.06,0.82-0.18,1.17
	c-0.12,0.35-0.29,0.65-0.51,0.9c-0.22,0.25-0.48,0.44-0.79,0.58C156.24,163.48,155.9,163.55,155.52,163.55 M157.36,160.7
	c0-0.32-0.04-0.62-0.11-0.9c-0.07-0.28-0.17-0.52-0.32-0.73c-0.15-0.2-0.34-0.37-0.56-0.49c-0.23-0.12-0.51-0.18-0.85-0.18
	c-0.33,0-0.6,0.06-0.84,0.19c-0.23,0.13-0.42,0.3-0.57,0.51c-0.15,0.21-0.25,0.45-0.32,0.73c-0.07,0.27-0.11,0.56-0.11,0.85
	c0,0.34,0.04,0.64,0.12,0.92c0.08,0.28,0.19,0.52,0.35,0.73c0.15,0.2,0.34,0.36,0.57,0.47c0.23,0.11,0.49,0.17,0.79,0.17
	c0.33,0,0.61-0.07,0.84-0.19c0.23-0.13,0.42-0.3,0.57-0.52c0.15-0.21,0.25-0.46,0.32-0.73C157.32,161.27,157.36,160.99,157.36,160.7
	"/>
<path fill-rule="evenodd" clip-rule="evenodd" fill="#2A3A46" d="M162.53,159.7c-0.11-0.4-0.31-0.72-0.57-0.94
	c-0.27-0.23-0.62-0.34-1.04-0.34c-0.32,0-0.59,0.07-0.82,0.2c-0.23,0.13-0.42,0.31-0.56,0.53s-0.25,0.47-0.32,0.74
	c-0.07,0.28-0.1,0.55-0.1,0.83c0,0.29,0.03,0.56,0.1,0.84c0.07,0.27,0.17,0.52,0.32,0.73c0.15,0.21,0.34,0.39,0.57,0.52
	c0.23,0.13,0.51,0.19,0.83,0.19c0.47,0,0.84-0.13,1.12-0.39c0.28-0.25,0.46-0.61,0.54-1.06h0.67c-0.05,0.3-0.14,0.57-0.26,0.82
	c-0.12,0.25-0.28,0.46-0.47,0.64c-0.19,0.17-0.42,0.31-0.68,0.41s-0.56,0.15-0.91,0.15c-0.43,0-0.8-0.07-1.12-0.22
	c-0.31-0.15-0.57-0.35-0.77-0.6c-0.2-0.25-0.36-0.55-0.45-0.9c-0.1-0.35-0.15-0.72-0.15-1.12c0-0.38,0.05-0.74,0.17-1.08
	c0.11-0.35,0.26-0.65,0.47-0.91c0.21-0.26,0.47-0.47,0.78-0.63c0.31-0.16,0.67-0.23,1.07-0.23c0.63,0,1.13,0.15,1.52,0.45
	c0.39,0.3,0.63,0.77,0.73,1.4H162.53z"/>
<path fill-rule="evenodd" clip-rule="evenodd" fill="#2A3A46" d="M168.35,160.25c0.12-0.01,0.26-0.03,0.42-0.06
	c0.17-0.02,0.3-0.06,0.4-0.11c0.1-0.05,0.17-0.13,0.19-0.25c0.02-0.11,0.04-0.22,0.04-0.32c0-0.32-0.1-0.58-0.31-0.79
	c-0.2-0.2-0.55-0.31-1.04-0.31c-0.21,0-0.41,0.02-0.59,0.06c-0.18,0.04-0.34,0.1-0.47,0.19c-0.14,0.1-0.25,0.22-0.34,0.38
	c-0.09,0.16-0.14,0.35-0.17,0.59h-0.64c0.02-0.32,0.09-0.59,0.22-0.82c0.13-0.22,0.29-0.41,0.49-0.55c0.19-0.14,0.43-0.25,0.69-0.31
	c0.26-0.07,0.54-0.1,0.83-0.1c0.27,0,0.53,0.03,0.76,0.09c0.24,0.06,0.45,0.16,0.63,0.28c0.17,0.13,0.32,0.3,0.41,0.52
	c0.1,0.22,0.15,0.48,0.15,0.79v2.95c0,0.24,0.04,0.39,0.13,0.46c0.09,0.07,0.26,0.05,0.53-0.05v0.49c-0.05,0.01-0.12,0.03-0.21,0.06
	c-0.1,0.03-0.19,0.04-0.28,0.04c-0.1,0-0.2-0.01-0.28-0.03c-0.1-0.01-0.19-0.05-0.25-0.1c-0.06-0.05-0.11-0.12-0.15-0.19
	c-0.03-0.07-0.06-0.15-0.08-0.24c-0.01-0.09-0.02-0.18-0.02-0.28c-0.26,0.29-0.56,0.52-0.91,0.67c-0.34,0.16-0.71,0.23-1.11,0.23
	c-0.23,0-0.46-0.03-0.68-0.09c-0.22-0.06-0.41-0.16-0.58-0.29c-0.17-0.13-0.3-0.29-0.39-0.49c-0.1-0.19-0.15-0.42-0.15-0.68
	c0-0.92,0.63-1.46,1.89-1.63L168.35,160.25z M169.41,160.56c-0.26,0.11-0.53,0.18-0.8,0.22c-0.27,0.04-0.54,0.06-0.81,0.08
	c-0.48,0.04-0.86,0.15-1.12,0.33c-0.27,0.18-0.4,0.46-0.4,0.82c0,0.17,0.03,0.31,0.1,0.43c0.07,0.12,0.16,0.22,0.26,0.3
	c0.11,0.08,0.23,0.14,0.37,0.18c0.14,0.04,0.29,0.06,0.43,0.06c0.25,0,0.49-0.03,0.73-0.1c0.23-0.06,0.45-0.16,0.63-0.29
	c0.18-0.13,0.34-0.29,0.45-0.49c0.11-0.2,0.17-0.43,0.17-0.71V160.56z"/>
<path fill-rule="evenodd" clip-rule="evenodd" fill="#2A3A46" d="M173.1,163.42c-0.07,0.01-0.18,0.03-0.3,0.07
	c-0.12,0.03-0.26,0.05-0.41,0.05c-0.32,0-0.56-0.08-0.72-0.23c-0.16-0.16-0.25-0.44-0.25-0.84v-4.1h-0.76v-0.52h0.76v-1.79h0.63
	v1.79h1.01v0.52h-1.01v3.85c0,0.13,0,0.25,0.01,0.35c0.01,0.1,0.03,0.18,0.06,0.24c0.03,0.06,0.09,0.11,0.16,0.14
	c0.07,0.03,0.17,0.04,0.31,0.04c0.09,0,0.17-0.01,0.26-0.02c0.09-0.01,0.17-0.03,0.25-0.05V163.42z"/>
<path fill-rule="evenodd" clip-rule="evenodd" fill="#2A3A46" d="M198.1,163.42c-0.07,0.01-0.17,0.03-0.3,0.07
	c-0.13,0.03-0.26,0.05-0.42,0.05c-0.31,0-0.55-0.08-0.71-0.23c-0.17-0.16-0.25-0.44-0.25-0.84v-4.1h-0.76v-0.52h0.76v-1.79h0.63
	v1.79h1.01v0.52h-1.01v3.85c0,0.13,0,0.25,0.01,0.35c0,0.1,0.03,0.18,0.06,0.24c0.03,0.06,0.09,0.11,0.16,0.14
	c0.07,0.03,0.18,0.04,0.31,0.04c0.08,0,0.17-0.01,0.26-0.02c0.09-0.01,0.17-0.03,0.25-0.05V163.42z"/>
<path fill-rule="evenodd" clip-rule="evenodd" fill="#2A3A46" d="M174.02,160.85c0,0.29,0.04,0.57,0.12,0.83
	c0.07,0.26,0.19,0.49,0.34,0.68c0.15,0.19,0.34,0.35,0.57,0.46c0.23,0.12,0.5,0.18,0.79,0.18c0.41,0,0.76-0.11,1.05-0.33
	c0.29-0.21,0.49-0.52,0.58-0.91h0.7c-0.08,0.26-0.17,0.49-0.3,0.71c-0.13,0.22-0.28,0.41-0.47,0.57c-0.18,0.17-0.41,0.29-0.67,0.38
	c-0.26,0.09-0.55,0.13-0.9,0.13c-0.43,0-0.8-0.07-1.11-0.22c-0.32-0.15-0.57-0.35-0.77-0.6c-0.2-0.25-0.35-0.55-0.45-0.9
	c-0.1-0.35-0.15-0.72-0.15-1.11c0-0.4,0.06-0.77,0.17-1.12c0.12-0.35,0.28-0.65,0.49-0.91c0.21-0.26,0.47-0.47,0.78-0.62
	c0.31-0.15,0.65-0.22,1.04-0.22c0.75,0,1.33,0.26,1.75,0.77c0.42,0.51,0.63,1.25,0.63,2.22H174.02z M177.54,160.32
	c0-0.26-0.03-0.51-0.11-0.74c-0.07-0.23-0.18-0.43-0.33-0.6c-0.14-0.17-0.32-0.31-0.54-0.41c-0.21-0.1-0.46-0.15-0.74-0.15
	c-0.28,0-0.53,0.05-0.74,0.16c-0.21,0.11-0.39,0.24-0.54,0.42c-0.15,0.17-0.27,0.38-0.36,0.6c-0.09,0.23-0.15,0.47-0.18,0.73H177.54
	z"/>
<path fill-rule="evenodd" clip-rule="evenodd" fill="#2A3A46" d="M183.14,156.06h0.63v7.34h-0.63v-0.95h-0.02
	c-0.09,0.19-0.21,0.34-0.35,0.48c-0.14,0.14-0.3,0.25-0.47,0.34c-0.17,0.09-0.35,0.16-0.53,0.21c-0.18,0.05-0.36,0.07-0.53,0.07
	c-0.44,0-0.81-0.07-1.11-0.22c-0.31-0.15-0.56-0.35-0.76-0.6c-0.19-0.25-0.34-0.55-0.43-0.9c-0.09-0.35-0.13-0.72-0.13-1.12
	c0-0.38,0.05-0.74,0.15-1.08c0.1-0.35,0.24-0.65,0.44-0.92c0.19-0.26,0.45-0.47,0.75-0.63c0.3-0.16,0.66-0.23,1.07-0.23
	c0.38,0,0.75,0.09,1.1,0.26c0.35,0.17,0.63,0.42,0.83,0.75V156.06z M183.14,160.68c0-0.31-0.04-0.6-0.13-0.87
	c-0.08-0.27-0.2-0.52-0.36-0.72c-0.16-0.2-0.35-0.37-0.57-0.49c-0.23-0.12-0.48-0.18-0.77-0.18c-0.33,0-0.61,0.06-0.84,0.19
	c-0.24,0.13-0.43,0.3-0.58,0.53c-0.16,0.22-0.27,0.48-0.34,0.77c-0.07,0.3-0.1,0.61-0.08,0.95c0,0.35,0.04,0.64,0.14,0.9
	c0.09,0.26,0.22,0.48,0.39,0.66c0.17,0.18,0.36,0.32,0.58,0.41c0.22,0.09,0.47,0.14,0.73,0.14c0.29,0,0.55-0.06,0.78-0.18
	c0.23-0.12,0.42-0.28,0.57-0.48c0.15-0.21,0.27-0.45,0.35-0.73C183.1,161.31,183.14,161.01,183.14,160.68"/>
<polygon fill-rule="evenodd" clip-rule="evenodd" fill="#2A3A46" points="191.87,162.57 193.28,157.84 193.92,157.84 192.17,163.4
	191.5,163.4 190.32,158.86 190.3,158.86 189.1,163.4 188.35,163.4 186.7,157.84 187.33,157.84 188.73,162.61 189.98,157.84
	190.68,157.84 "/>
<path fill-rule="evenodd" clip-rule="evenodd" fill="#2A3A46" d="M198.64,163.4v-7.34h0.62v2.69c0.25-0.27,0.51-0.48,0.78-0.65
	c0.27-0.17,0.59-0.25,0.96-0.25c0.34,0,0.64,0.06,0.93,0.17c0.28,0.11,0.52,0.31,0.72,0.6c0.13,0.19,0.21,0.39,0.23,0.6
	c0.02,0.2,0.03,0.42,0.03,0.64v3.53h-0.62v-3.52c0-0.49-0.11-0.85-0.33-1.1c-0.21-0.24-0.57-0.37-1.07-0.37
	c-0.19,0-0.37,0.03-0.53,0.09c-0.16,0.06-0.3,0.14-0.43,0.23c-0.13,0.1-0.24,0.21-0.33,0.34c-0.09,0.13-0.16,0.26-0.21,0.39
	c-0.06,0.17-0.1,0.34-0.12,0.5c-0.01,0.16-0.02,0.34-0.02,0.52v2.91H198.64z"/>
<rect x="164.12" y="157.85" fill-rule="evenodd" clip-rule="evenodd" fill="#2A3A46" width="0.63" height="5.55"/>
<path fill-rule="evenodd" clip-rule="evenodd" fill="#2A3A46" d="M163.93,156.57c0-0.28,0.23-0.51,0.51-0.51
	c0.28,0,0.51,0.23,0.51,0.51c0,0.28-0.23,0.51-0.51,0.51C164.15,157.08,163.93,156.85,163.93,156.57"/>
<rect x="194.45" y="157.85" fill-rule="evenodd" clip-rule="evenodd" fill="#2A3A46" width="0.63" height="5.55"/>
<path fill-rule="evenodd" clip-rule="evenodd" fill="#2A3A46" d="M194.26,156.57c0-0.28,0.23-0.51,0.51-0.51
	c0.28,0,0.51,0.23,0.51,0.51c0,0.28-0.22,0.51-0.51,0.51C194.49,157.08,194.26,156.85,194.26,156.57"/>
<path fill-rule="evenodd" clip-rule="evenodd" d="M84.12,93.82l-2.16-17.06l-7.95,0.82c0.52-1.45,0.64-2.7,0.3-3.86l0.53-0.74
	c0.73-5.75,1.03-12.27,1.65-18.2c0.41-3.91-1.55-5.45-3.51-6.07l-15.13-7.13c-0.3-1.66,0.12-3.57,1.87-4.38
	c0.57-0.26,1.14-0.94,1.23-2.3c0.2-3.04-1.23-3.04-1.35-3.66c-0.1-1.05,0.21-2.01,1.12-2.83c1.46-1.47,2.08-3.33,1.35-4.93
	c-2.1-4.58-5.13-2.19-5.86-2.4c-0.84-0.32-1.03-0.84-1.24-1.25c-1.44-3.14-6.9-4.62-10.79-4.62c-3.52,0-6.51,0.87-8.97,3.77
	c-2.8,2.1-4.33,5.78-2.28,10.37c0.22,0.64,0.31,2.1,0,2.43c-0.72,0.61-1.44,1.03-2.16,1.25c-1.83-2.93-3.08-7.34-4.41-10.06
	c-0.12-0.82,0.2-2.19,0.39-3.23c0.3-1.16,0.12-2.42-0.19-3.15c-0.53-2.72-1.25-5.33-2.07-8.06c-0.72-2.62-1.48-3.36-2.58-3.31
	c-1.52,0.07-1.96,1.94-1.85,4.67c-1.15,0.21-2.25,0.95-2.99,1.99c-1.14-0.44-1.97-0.11-2.69,0.94c-0.77-0.19-1.42,0.02-1.95,0.52
	c-0.57,0.54-0.86,1.31-0.86,2.09c0.02,1.78,0.68,2.97,2,3.78c-0.63,1.45,0.19,3.35,1.84,5.66c0,0.2-0.2,0.4-0.4,0.61l-0.92,0.85
	l3.71,14.35c0.82,4.2,1.63,9.64,2.46,15.6c0.19,1.78,0.29,3.44,0,5.02l-3.1,19.06c1.14,1.16,6.08,2.51,12.15,3.88l0.41,3.33
	l-12.16,3.03c-0.81,0.42-0.71,2.28,0.41,2.4l22.55-2.31l0.84-3.43c0.5-0.62,1.33-0.73,2.17-0.11l2.56,7.85l17.31,4.62
	c0.93,0.19,1.75,0.19,2.16-0.23c0.5-0.51,0.5-1.57,0-2.72L84.12,93.82z M32.04,86.1l-0.21-2.73l1.74-0.1l0.3,2.71L32.04,86.1z
	 M54.05,89.34v-2.91c0.74-0.33,1.55-0.65,2.27-1.16c0.65,0,1.16,0.31,1.66,1.04L59,92.16C57.26,91.53,55.51,89.97,54.05,89.34"/>
<path fill-rule="evenodd" clip-rule="evenodd" fill="#FFFFFF" d="M51.41,28.98c0.72,0,1.22,0.53,1.22,1.27
	c0,0.71-0.5,1.24-1.22,1.24c-0.72,0-1.24-0.52-1.24-1.24C50.17,29.51,50.69,28.98,51.41,28.98 M43.01,22.55
	c1.63,0.41,2.86,0.41,4.1-0.42c0.52,0.31,1.23,0.59,1.94,0.51c2.21-0.26,4.09-0.92,5.42,0.72c0.2,0.64,0,1.08-0.62,1.37
	c-2.75-0.83-3.87,0-5.3,2.49c0.09,0.62,1,0.2,2.04-0.6c0.62-0.77,1.54-1.09,2.04-0.85l2.86,0.51c0.82,0,1.54,1.04,1.43,2.5
	c0.11,3.33-0.81,6.36-0.49,12.17c0.04,0.67-0.08,1.16-0.31,1.56c-0.26,0.44-0.72,0.73-1.23,0.82c-2.76,0.49-5.54,1.07-8.3,1.74
	c-1.01,0.14-1.95,0.14-2.96-0.2c-2.06-0.61-4.6-1.23-6.04-2.16c-1.34-0.74-2.07-2.2-1.95-4.18c0.11-1.77,0.72-3.22,0.62-5.51
	l-0.51-6.64c0.2-1.88,0.92-3.13,2.77-3.13c0.3,0.09,0.61,0.73,0.61,1.16c-0.51,0.71-0.94,1.53-1.21,2.37
	c-0.11,0.75,0.61,1.14,1.21,0.53c0.51-1.04,1.33-1.56,2.86-1.04c1.13,0.93,1.84,1.96,1.84,3.54c-0.1,1.55-0.1,2.6-0.2,4.05
	c0,0.64,0.1,1.05,0.61,1.27c0.31,0.28,0.31,0.71,0.2,1.03c-0.51,0.41-1.02,0.62-1.53,0.52c-1.25-0.31-2.36-1.05-3.4-1.97
	c-0.39-0.63-1.11,0-0.89,0.61l1.84,1.76c1.11,1.04,1.84,4.15,5.62,4.15c3.78,0.22,4.5-2.47,5.41-3.73c0.43-0.62,0.83-1.35,1.45-1.97
	c0.6-0.13,1.01-0.32,1.23-0.83c-0.22-0.53-0.74-1.04-1.23-0.84c-0.32,0-0.22,0.21-0.52,0.52l-0.51,0.94
	c-3.08,2.08-4.29,1.76-4.71,0.52l1.12-1.13c0.31-0.75-0.2-1.04-0.62-0.84c-1.33,0.84-2.56,0.84-3.08-0.61
	c0.11-1.47,0.43-3.23,0.32-4.58c-0.32-1.67-1.22-3.03-3.17-4.37C41.08,23.78,41.4,22.13,43.01,22.55 M40.56,29.3
	c0.72,0,1.32,0.52,1.32,1.25c0,0.73-0.6,1.24-1.32,1.24c-0.63,0-1.23-0.51-1.23-1.24C39.33,29.82,39.93,29.3,40.56,29.3
	 M43.73,37.61h5.21c0.42,0,0.61,0.23,0.53,0.62c-0.53,1.47-1.65,2.09-3.18,2.09c-1.43,0.11-2.45-0.53-3.16-1.46
	C42.49,38.04,42.8,37.61,43.73,37.61 M48.64,46.05c2.16-0.43,4.21-0.96,6.03-1.59c0.71-0.29,1.44-0.09,1.31,0.77
	c-0.39,1.53-1.63,3.72-2.85,5.28c-0.71,0.84-1.52,0.84-2.55,0c-1.12-0.92-2.15-2.07-2.77-3.33C47.71,46.35,48.04,45.95,48.64,46.05
	 M43.12,46.26c-2.16-0.51-3.08-1.26-4.93-1.89c-0.69-0.31-1.52,0-1.22,1.25c0.31,1.56,1.12,3.13,3.18,5c0.71,0.62,0.51,0.4,1.34,0
	c1.12-0.94,1.73-1.88,2.34-3.12C44.04,46.66,43.84,46.35,43.12,46.26 M22.46,10.85c-0.41-1.64-0.62-3-0.74-4.15
	c0-0.7,0.16-1.03,0.63-0.98c0.35,0.04,0.63,0.28,0.76,0.6c0.56,1.32,1.11,2.99,1.28,5.05L22.46,10.85z M21.12,9.76
	c-0.9-0.11-1.43,0.18-1.74,1.24c-0.31,1.35,0,2.92,1.24,4.58c0.62,0.41,0.92,0.19,1.11-0.54C20.71,13.07,21.32,10.91,21.12,9.76
	 M17.85,11.4c-1.13-0.4-1.51,0.23-1.63,1.26c-0.1,3.01,1.22,4.38,2.76,2.92C18.26,14.11,17.85,12.66,17.85,11.4 M14.78,12.96
	c-0.71-0.3-0.92,0.11-1.02,0.84c-0.08,2.19,1.13,3.84,2.05,2.81C15.2,15.58,14.88,13.92,14.78,12.96 M18.98,16.82
	c0.71-0.62,1.01-0.21,1.32,0.62c0.1,0.63,0.4,1.24,1.13,1.88c0.4,0.51,1.12,1.04,1.42,1.55c0.43-0.09,0.71-0.62,0.43-1.13
	c-1.25-0.94-1.45-1.25-1.34-2.5c0.08-0.82,0.82-1.25,1.94-1.56c-0.81-0.93-1.44-1.87-1.33-2.79c0.1-0.74,0.91-0.95,1.53-0.43
	c0.72,0.43,1.24,1.24,2.05,3.43c0.3,0.73,0.41,1.45,0.2,2.29c-0.61,3.64-3.68,4.79-5.81,3.43c-0.63,0.95-1.85,1.15-2.77,0.84
	c-1.63-0.84-1.84-2.08-1.84-3.63c-0.1-0.85,0.22-1.26,0.72-1.47C17.25,17.12,18.55,17.12,18.98,16.82 M64.49,78.7l16.19-1.25
	l1.53,12.47l-15.87,2.29L64.49,78.7z M58.98,78.99l3.88-0.18l1.63,13.4c-1.12,0.51-2.45,0.41-3.87-0.2L58.98,78.99z M62.25,73.2
	c-0.22-2.09,0.81-3.65,1.96-4.49c0.7-0.52,1.82-0.63,2.74,0.1c0.6-0.1,1.33,0.12,2.05,0.74c0.62-0.12,1.23,0.2,1.84,0.73
	c1.65,0.62,2.95,0.65,2.47,2.9c-0.16,0.76-0.7,1.38-1.44,1.99c-1.01,0.82-2.05,1.02-2.24-0.12c0,0-1.32,1.13-1.86,1.34
	c-1.63,0.64-1.14-1.35-1.33-2.78c-0.27-2.01-1.52-2.19-1.95-1.15c-0.2,1.98-2.01,2.2-2.23,0.82C62.26,73.27,62.25,73.2,62.25,73.2"
	/>
</svg>
